    <svg width="21" height="20" viewBox="0 0 21 20" fill="none" xmlns="http://www.w3.org/2000/svg"><g clip-path="url(#clip0_803_2023)"><g filter="url(#filter0_d_803_2023)"><path d="M10.5001 18.3333C15.1025 18.3333 18.8334 14.6023 18.8334 9.99996C18.8334 5.39759 15.1025 1.66663 10.5001 1.66663C5.89771 1.66663 2.16675 5.39759 2.16675 9.99996C2.16675 14.6023 5.89771 18.3333 10.5001 18.3333Z" stroke="white" stroke-width="1.5" stroke-linecap="round" stroke-linejoin="round"/><path d="M13.0001 8.14811C13.0001 8.14811 11.9707 6.66663 10.255 6.66663C8.5393 6.66663 7.16675 8.14811 7.16675 9.99996C7.16675 11.8518 8.5393 13.3333 10.255 13.3333C11.9707 13.3333 13.0001 11.8518 13.0001 11.8518" stroke="white" stroke-width="1.5" stroke-linecap="round" stroke-linejoin="round"/></g></g><defs><filter id="filter0_d_803_2023" x="-2.58325" y="0.916626" width="26.1667" height="26.1666" filterUnits="userSpaceOnUse" color-interpolation-filters="sRGB"><feFlood flood-opacity="0" result="BackgroundImageFix"/><feColorMatrix in="SourceAlpha" type="matrix" values="0 0 0 0 0 0 0 0 0 0 0 0 0 0 0 0 0 0 127 0" result="hardAlpha"/><feOffset dy="4"/><feGaussianBlur stdDeviation="2"/><feComposite in2="hardAlpha" operator="out"/><feColorMatrix type="matrix" values="0 0 0 0 0 0 0 0 0 0 0 0 0 0 0 0 0 0 0.25 0"/><feBlend mode="normal" in2="BackgroundImageFix" result="effect1_dropShadow_803_2023"/><feBlend mode="normal" in="SourceGraphic" in2="effect1_dropShadow_803_2023" result="shape"/></filter><clipPath id="clip0_803_2023"><rect width="20" height="20" fill="white" transform="translate(0.5)"/></clipPath></defs></svg>
